HIERARCHY
ROOT Hips
{
	OFFSET 0.000000 0.000000 0.000000
	CHANNELS 6 Xposition Yposition Zposition Zrotation Yrotation Xrotation 
	JOINT LHipJoint
	{
		OFFSET 0.000000 0.000000 0.000000
		CHANNELS 3 Zrotation Yrotation Xrotation
		JOINT LeftUpLeg
		{
			OFFSET 1.363060 -1.794630 0.839290
			CHANNELS 3 Zrotation Yrotation Xrotation
			JOINT LeftLeg
			{
				OFFSET 2.448110 -6.726130 0.000000
				CHANNELS 3 Zrotation Yrotation Xrotation
				JOINT LeftFoot
				{
					OFFSET 2.562200 -7.039590 0.000000
					CHANNELS 3 Zrotation Yrotation Xrotation
					JOINT LeftToeBase
					{
						OFFSET 0.157640 -0.433110 2.322550
						CHANNELS 3 Zrotation Yrotation Xrotation
						End Site
						{
							OFFSET 0.000000 0.000000 0.000000
						}
					}
				}
			}
		}
	}
	JOINT RHipJoint
	{
		OFFSET 0.000000 0.000000 0.000000
		CHANNELS 3 Zrotation Yrotation Xrotation
		JOINT RightUpLeg
		{
			OFFSET -1.305520 -1.794630 0.839290
			CHANNELS 3 Zrotation Yrotation Xrotation
			JOINT RightLeg
			{
				OFFSET -2.542530 -6.985550 0.000000
				CHANNELS 3 Zrotation Yrotation Xrotation
				JOINT RightFoot
				{
					OFFSET -2.568260 -7.056230 0.000000
					CHANNELS 3 Zrotation Yrotation Xrotation
					JOINT RightToeBase
					{
						OFFSET -0.164730 -0.452590 2.363150
						CHANNELS 3 Zrotation Yrotation Xrotation
						End Site
						{
							OFFSET 0.000000 0.000000 0.000000
						}
					}
				}
			}
		}
	}
	JOINT LowerBack
	{
		OFFSET 0.000000 0.000000 0.000000
		CHANNELS 3 Zrotation Yrotation Xrotation
		JOINT Spine
		{
			OFFSET 0.028270 2.035590 -0.193380
			CHANNELS 3 Zrotation Yrotation Xrotation
			JOINT Spine1
			{
				OFFSET 0.056720 2.048850 -0.042750
				CHANNELS 3 Zrotation Yrotation Xrotation
				JOINT Neck
				{
					OFFSET 0.000000 0.000000 0.000000
					CHANNELS 3 Zrotation Yrotation Xrotation
					JOINT Neck1
					{
						OFFSET -0.054170 1.746240 0.172020
						CHANNELS 3 Zrotation Yrotation Xrotation
						JOINT Head
						{
							OFFSET 0.104070 1.761360 -0.123970
							CHANNELS 3 Zrotation Yrotation Xrotation
							End Site
							{
								OFFSET 0.000000 0.000000 0.000000
							}
						}
					}
				}
				JOINT LeftShoulder
				{
					OFFSET 0.000000 0.000000 0.000000
					CHANNELS 3 Zrotation Yrotation Xrotation
					JOINT LeftArm
					{
						OFFSET 3.362410 1.200890 -0.311210
						CHANNELS 3 Zrotation Yrotation Xrotation
						JOINT LeftForeArm
						{
							OFFSET 4.983000 -0.000000 -0.000000
							CHANNELS 3 Zrotation Yrotation Xrotation
							JOINT LeftHand
							{
								OFFSET 3.483560 -0.000000 -0.000000
								CHANNELS 3 Zrotation Yrotation Xrotation
								JOINT LeftFingerBase
								{
									OFFSET 0.000000 0.000000 0.000000
									CHANNELS 3 Zrotation Yrotation Xrotation
									JOINT LeftHandIndex1
									{
										OFFSET 0.715260 -0.000000 -0.000000
										CHANNELS 3 Zrotation Yrotation Xrotation
										End Site
										{
											OFFSET 0.000000 0.000000 0.000000
										}
									}
								}
								JOINT LThumb
								{
									OFFSET 0.000000 0.000000 0.000000
									CHANNELS 3 Zrotation Yrotation Xrotation
									End Site
									{
										OFFSET 0.000000 0.000000 0.000000
									}
								}
							}
						}
					}
				}
				JOINT RightShoulder
				{
					OFFSET 0.000000 0.000000 0.000000
					CHANNELS 3 Zrotation Yrotation Xrotation
					JOINT RightArm
					{
						OFFSET -3.136600 1.374050 -0.404650
						CHANNELS 3 Zrotation Yrotation Xrotation
						JOINT RightForeArm
						{
							OFFSET -5.241900 -0.000000 -0.000000
							CHANNELS 3 Zrotation Yrotation Xrotation
							JOINT RightHand
							{
								OFFSET -3.444170 -0.000000 -0.000000
								CHANNELS 3 Zrotation Yrotation Xrotation
								JOINT RightFingerBase
								{
									OFFSET 0.000000 0.000000 0.000000
									CHANNELS 3 Zrotation Yrotation Xrotation
									JOINT RightHandIndex1
									{
										OFFSET -0.622530 -0.000000 -0.000000
										CHANNELS 3 Zrotation Yrotation Xrotation
										End Site
										{
											OFFSET 0.000000 0.000000 0.000000
										}
									}
								}
								JOINT RThumb
								{
									OFFSET 0.000000 0.000000 0.000000
									CHANNELS 3 Zrotation Yrotation Xrotation
									End Site
									{
										OFFSET 0.000000 0.000000 0.000000
									}
								}
							}
						}
					}
				}
			}
		}
	}
}
MOTION
Frames: 10
Frame Time: 0.008333
4.403014 16.897077 -7.404633 178.766891 12.527680 -168.390135 -8.690476 1.701007 4.322832 -22.221540 -5.113519 -31.441070 -3.384210 -0.275721 17.624102 0.682233 1.607161 -8.583675 -0.006400 0.000000 -1.028600 11.512344 -3.404455 -1.935747 -4.488290 -20.288398 -5.883372 -0.478611 -2.577282 42.627025 -2.017580 -3.830686 32.847916 -1.575000 -0.000001 -72.174300 -2.773855 1.674080 -4.127091 -1.817244 1.714980 -3.623728 -7.437929 1.793400 0.758650 9.642994 -9.735234 -9.654363 -2.966641 -0.206981 -0.547498 0.000000 0.000000 0.000000 -2.416262 24.676734 0.186313 -57.741751 11.105501 1.903812 -0.384297 -81.092637 -0.020851 15.393847 -1.690898 -0.248039 -0.291779 0.131881 -0.000000 0.000000 0.000000 0.000000 0.000000 0.000000 0.000000 11.852425 -0.709932 -1.934851 75.569995 11.177914 3.164883 0.770867 73.327859 -0.047613 -9.758603 10.099432 -0.915289 0.142026 -0.463106 -0.000000 0.000000 0.000000 0.000000 0.000000 0.000000 0.000000 
4.475552 16.898101 -7.533458 178.440749 12.008222 -168.588418 -8.642801 1.768805 4.196145 -22.642906 -4.727705 -30.864946 -3.442492 -0.232393 18.025864 0.614197 1.119550 -8.796478 -0.029600 0.000000 -0.550200 11.631057 -3.165355 -2.027366 -5.056621 -20.553320 -7.245757 -0.571509 -2.711617 45.342164 -2.247310 -6.595155 31.371425 -3.169600 0.000001 -67.625900 -2.995471 1.452989 -3.916169 -1.832108 1.518315 -3.575084 -7.395466 1.592364 0.759450 9.668832 -9.884761 -9.714311 -3.016510 -0.209555 -0.567797 0.000000 0.000000 0.000000 -2.541736 24.352805 0.157393 -58.495325 10.684674 2.297875 -0.397661 -80.954613 -0.021503 15.257851 -1.757366 -0.255446 -0.288052 0.136334 -0.000000 0.000000 0.000000 0.000000 0.000000 0.000000 0.000000 12.256339 -1.027308 -1.837757 75.972821 10.866312 3.619740 0.829298 71.806673 -0.045657 -9.875083 10.228448 -0.936839 0.145481 -0.451202 -0.000000 0.000000 0.000000 0.000000 0.000000 0.000000 0.000000 
4.544936 16.901417 -7.661541 178.173019 11.536411 -168.720806 -8.612343 1.822493 4.098356 -22.923588 -4.450392 -30.303500 -3.485552 -0.199856 18.366968 0.559128 0.686051 -9.058256 -0.050600 0.000000 -0.256900 11.717996 -2.940882 -2.095302 -5.492659 -20.670221 -8.703771 -0.656631 -2.862733 47.874009 -2.422311 -8.882090 29.362636 -4.348101 0.000000 -63.679200 -3.151146 1.240280 -3.754059 -1.834174 1.323447 -3.533403 -7.355260 1.392976 0.769906 9.699315 -10.061711 -9.776109 -3.067796 -0.212363 -0.587921 0.000000 0.000000 0.000000 -2.712715 24.015040 0.121195 -59.285139 10.182305 2.707248 -0.416329 -80.715482 -0.022189 15.150722 -1.818996 -0.262550 -0.284357 0.140623 -0.000000 0.000000 0.000000 0.000000 0.000000 0.000000 0.000000 12.675854 -1.382787 -1.737902 76.308037 10.521227 4.071972 0.890577 70.268655 -0.043543 -9.992160 10.345132 -0.957488 0.148963 -0.438529 -0.000000 0.000000 0.000000 0.000000 0.000000 0.000000 0.000000 
4.611368 16.907256 -7.789157 177.963112 11.123696 -168.790565 -8.599939 1.862891 4.026666 -23.072575 -4.273178 -29.755864 -3.512528 -0.177845 18.642292 0.520451 0.339763 -9.350344 -0.069000 0.000000 -0.169000 11.775758 -2.733120 -2.131531 -5.797125 -20.615222 -10.252017 -0.737534 -3.022123 50.187588 -2.536520 -10.573276 26.971741 -5.040699 0.000000 -60.393200 -3.242605 1.037021 -3.644962 -1.823972 1.131752 -3.499814 -7.317587 1.196619 0.789720 9.735041 -10.264753 -9.838839 -3.119262 -0.215332 -0.607498 0.000000 0.000000 0.000000 -2.924187 23.667365 0.078170 -60.106152 9.607408 3.125929 -0.439912 -80.380810 -0.022948 15.079730 -1.872187 -0.268953 -0.280826 0.144747 -0.000000 0.000000 0.000000 0.000000 0.000000 0.000000 0.000000 13.104352 -1.773763 -1.636869 76.582598 10.140557 4.517888 0.954838 68.721979 -0.041247 -10.100588 10.453127 -0.976738 0.152319 -0.425242 -0.000000 0.000000 0.000000 0.000000 0.000000 0.000000 0.000000 
4.675241 16.915633 -7.916494 177.806625 10.776660 -168.805310 -8.604931 1.891499 3.975267 -23.106676 -4.176030 -29.219534 -3.524170 -0.165815 18.848096 0.499660 0.100513 -9.657918 -0.085600 0.000000 -0.286900 11.807834 -2.541211 -2.130113 -5.979754 -20.374409 -11.874740 -0.813860 -3.179542 52.248262 -2.588377 -11.640877 24.361722 -5.272000 -0.000001 -57.850700 -3.275405 0.842433 -3.587341 -1.802494 0.943057 -3.474944 -7.282152 1.003032 0.815711 9.775432 -10.489610 -9.899483 -3.169928 -0.218424 -0.625628 0.000000 0.000000 0.000000 -3.169080 23.301169 0.029739 -60.953029 8.985057 3.540445 -0.467318 -79.969417 -0.023810 15.047632 -1.914121 -0.274555 -0.277500 0.148725 -0.000000 0.000000 0.000000 0.000000 0.000000 0.000000 0.000000 13.533380 -2.195275 -1.535181 76.805747 9.719559 4.950544 1.021979 67.175509 -0.038751 -10.191130 10.556949 -0.993986 0.155387 -0.411518 -0.000000 0.000000 0.000000 0.000000 0.000000 0.000000 0.000000 
4.737097 16.926425 -8.043566 177.695759 10.496879 -168.777180 -8.624474 1.910387 3.936867 -23.048826 -4.134392 -28.685409 -3.522596 -0.163354 18.978917 0.496720 -0.023948 -9.970146 -0.102200 0.000000 -0.589700 11.818937 -2.362288 -2.088627 -6.062140 -19.948246 -13.546741 -0.882612 -3.325828 54.028245 -2.579498 -12.116523 21.680327 -5.125400 -0.000000 -56.025600 -3.260429 0.654357 -3.574209 -1.771605 0.756229 -3.457703 -7.248185 0.811113 0.846850 9.820670 -10.734091 -9.957068 -3.218246 -0.221508 -0.642085 0.000000 0.000000 0.000000 -3.433166 22.916316 -0.022454 -61.823857 8.325672 3.946430 -0.497809 -79.493283 -0.024816 15.055676 -1.944677 -0.279258 -0.274430 0.152677 -0.000000 0.000000 0.000000 0.000000 0.000000 0.000000 0.000000 13.954364 -2.645473 -1.434204 76.988800 9.258188 5.362724 1.091679 65.635878 -0.036061 -10.256615 10.661128 -1.008834 0.158036 -0.397526 -0.000000 0.000000 0.000000 0.000000 0.000000 0.000000 0.000000 
4.797533 16.939386 -8.170326 177.622386 10.280938 -168.721561 -8.654974 1.921722 3.902793 -22.923921 -4.119160 -28.141535 -3.510912 -0.169859 19.030943 0.509838 -0.040659 -10.281214 -0.120500 0.000000 -1.033900 11.813722 -2.192304 -2.007731 -6.071136 -19.347863 -15.235954 -0.939882 -3.453508 55.504455 -2.515776 -12.077777 19.060385 -4.715999 -0.000000 -54.892000 -3.210092 0.469655 -3.594004 -1.733388 0.569282 -3.446335 -7.214899 0.618901 0.880836 9.870629 -10.994068 -10.009726 -3.263037 -0.224481 -0.656463 0.000000 0.000000 0.000000 -3.700617 22.507822 -0.076394 -62.716638 7.644014 4.337965 -0.530305 -78.970487 -0.026002 15.101662 -1.964910 -0.283362 -0.271616 0.156750 -0.000000 0.000000 0.000000 0.000000 0.000000 0.000000 0.000000 14.359208 -3.120900 -1.334770 77.142460 8.756079 5.744770 1.163311 64.109872 -0.033203 -10.291855 10.769405 -1.021181 0.160149 -0.383420 -0.000000 0.000000 0.000000 0.000000 0.000000 0.000000 0.000000 
4.857145 16.954225 -8.296637 177.577738 10.122333 -168.654881 -8.692769 1.927526 3.864444 -22.754104 -4.101933 -27.573410 -3.492731 -0.184628 19.001650 0.535746 0.030859 -10.588981 -0.141600 0.000000 -1.560701 11.796441 -2.026777 -1.890714 -6.034277 -18.592517 -16.908059 -0.982596 -3.557386 56.662461 -2.407575 -11.633296 16.613833 -4.163500 -0.000000 -54.421800 -3.136552 0.284641 -3.632718 -1.689835 0.379683 -3.439007 -7.181383 0.423845 0.913539 9.924259 -11.264962 -10.054112 -3.303591 -0.227294 -0.667948 0.000000 0.000000 0.000000 -3.955943 22.060628 -0.130055 -63.627466 6.965432 4.705065 -0.563166 -78.428697 -0.027389 15.179659 -1.977369 -0.287068 -0.268989 0.161095 -0.000000 0.000000 0.000000 0.000000 0.000000 0.000000 0.000000 14.740069 -3.618180 -1.236609 77.276636 8.212652 6.085299 1.236040 62.603474 -0.030222 -10.294714 10.883356 -1.030930 0.161658 -0.369322 -0.000000 0.000000 0.000000 0.000000 0.000000 0.000000 0.000000 
4.916628 16.970542 -8.422390 177.552360 10.012034 -168.592803 -8.733628 1.929754 3.815149 -22.558564 -4.061345 -26.965314 -3.471849 -0.206995 18.889484 0.570379 0.163912 -10.893750 -0.166100 -0.000000 -2.106900 11.771334 -1.861472 -1.743340 -5.977110 -17.710304 -18.533438 -1.009326 -3.635375 57.502482 -2.267736 -10.902897 14.407489 -3.566000 0.000000 -54.412400 -3.052738 0.095444 -3.676464 -1.643153 0.184807 -3.432647 -7.146893 0.223517 0.945700 9.982673 -11.544057 -10.091140 -3.338869 -0.229801 -0.676996 0.000000 0.000000 0.000000 -4.179963 21.583637 -0.181933 -64.554657 6.281812 5.057708 -0.595810 -77.877205 -0.029013 15.285406 -1.986230 -0.290876 -0.266607 0.165939 -0.000000 0.000000 0.000000 0.000000 0.000000 0.000000 0.000000 15.092939 -4.135381 -1.141335 77.397562 7.631256 6.372278 1.308794 61.123895 -0.027162 -10.263541 11.001402 -1.037479 0.162513 -0.355308 -0.000000 0.000000 0.000000 0.000000 0.000000 0.000000 0.000000 
4.976372 16.987985 -8.547478 177.541602 9.940142 -168.548123 -8.774657 1.929826 3.749967 -22.350284 -3.981999 -26.302652 -3.451394 -0.236256 18.693590 0.609073 0.327475 -11.195766 -0.193400 -0.000000 -2.614200 11.741153 -1.692651 -1.572143 -5.917424 -16.729337 -20.087835 -1.020727 -3.686847 58.032392 -2.112453 -10.019550 12.486908 -2.999800 -0.000000 -54.779901 -2.967811 -0.101657 -3.712692 -1.594920 -0.018117 -3.425642 -7.111131 0.015159 0.973279 10.044927 -11.826516 -10.117681 -3.368982 -0.232018 -0.682858 0.000000 0.000000 0.000000 -4.360237 21.061950 -0.230719 -65.491416 5.617167 5.388337 -0.626504 -77.347078 -0.030864 15.409287 -1.997736 -0.295587 -0.264385 0.171445 -0.000000 0.000000 0.000000 0.000000 0.000000 0.000000 0.000000 15.413912 -4.668621 -1.048071 77.508844 7.013662 6.593552 1.380530 59.676493 -0.024086 -10.201215 11.120491 -1.040930 0.162727 -0.341430 -0.000000 0.000000 0.000000 0.000000 0.000000 0.000000 0.000000 
